<?xml version="1.0" standalone="no"?>
<!DOCTYPE svg PUBLIC "-//W3C//DTD SVG 20010904//EN"
 "http://www.w3.org/TR/2001/REC-SVG-20010904/DTD/svg10.dtd">
<svg version="1.0" xmlns="http://www.w3.org/2000/svg"
 width="2083.000000pt" height="833.000000pt" viewBox="0 0 2083.000000 833.000000"
 preserveAspectRatio="xMidYMid meet">

<g transform="translate(0.000000,833.000000) scale(0.100000,-0.100000)"
fill="#000000" stroke="none">
<path d="M18505 7495 c-285 -54 -522 -263 -710 -627 -85 -164 -127 -295 -158
-493 -41 -253 -50 -348 -51 -531 l-1 -170 -29 40 c-16 23 -65 79 -110 126
-125 131 -147 162 -245 345 -94 176 -116 229 -145 352 -17 66 -20 72 -48 78
-31 7 -106 -1 -144 -15 -16 -7 -25 -22 -33 -60 -30 -141 5 -287 116 -478 54
-93 322 -451 459 -613 61 -74 124 -171 124 -195 0 -25 -384 348 -452 439 -27
37 -51 67 -53 67 -2 0 1 -19 7 -42 40 -181 237 -391 478 -511 36 -17 67 -33
69 -34 2 -2 -2 -9 -9 -18 -13 -16 -34 -10 -24 7 4 7 2 8 -4 4 -6 -4 -51 16
-99 43 -166 94 -293 132 -488 146 l-90 6 25 -22 c54 -47 444 -218 590 -258 65
-18 81 -27 120 -70 25 -26 62 -54 83 -62 29 -10 36 -17 31 -31 -4 -14 3 -22
30 -33 19 -8 47 -15 61 -15 26 0 26 -1 23 -62 l-3 -63 69 -14 68 -14 -6 -43
-5 -42 42 -6 c23 -4 71 -12 107 -18 62 -11 63 -12 33 -20 -51 -13 -32 -38 29
-38 27 0 59 -5 70 -11 18 -10 20 -9 15 5 -3 8 -2 18 3 21 22 13 10 56 -20 73
-22 13 -28 22 -24 38 8 32 -20 79 -63 105 -21 12 -51 35 -68 50 -16 15 -41 32
-55 37 l-25 9 32 17 c18 9 51 16 75 15 24 0 37 -3 30 -6 -8 -3 36 -22 97 -43
61 -20 130 -50 153 -65 24 -16 79 -46 122 -67 114 -56 322 -176 381 -219 103
-77 178 -95 247 -60 20 10 73 57 118 104 128 135 181 150 366 101 55 -14 111
-28 127 -31 38 -7 85 15 102 48 48 91 -20 165 -210 229 -121 41 -135 51 -135
101 0 77 -54 147 -151 198 -40 21 -53 33 -51 47 8 44 14 236 8 259 -17 66
-151 167 -276 209 -41 13 -122 29 -179 35 -57 5 -105 12 -107 14 -2 2 22 22
54 45 101 71 169 158 187 240 5 24 1 44 -15 77 -16 34 -19 48 -11 64 23 43 13
86 -38 156 l-49 67 -7 126 c-4 70 -5 244 -1 387 11 395 -10 464 -163 542 -91
47 -94 47 -196 28z m-335 -589 c14 -6 32 -25 40 -42 18 -38 68 -70 84 -54 17
17 41 11 66 -15 l24 -25 -32 -94 c-18 -52 -32 -109 -32 -126 0 -18 -9 -43 -20
-57 l-19 -25 26 -23 c35 -29 37 -84 5 -118 -28 -30 -28 -37 3 -37 30 0 62 -33
70 -72 11 -48 -4 -97 -42 -139 -20 -22 -34 -41 -32 -42 2 -1 13 -7 24 -13 13
-7 21 -24 23 -48 4 -40 10 -43 53 -20 17 8 33 14 35 12 2 -2 -24 -33 -58 -68
-33 -36 -73 -83 -87 -105 -14 -22 -51 -72 -82 -110 -97 -120 -235 -341 -269
-429 -9 -26 -9 -27 5 -16 9 7 15 8 15 2 0 -5 -12 -15 -27 -20 -16 -5 -36 -13
-45 -17 -13 -5 -18 -2 -18 8 0 10 -11 17 -27 19 -21 2 -31 11 -38 33 -16 46
-38 75 -58 75 -10 0 -20 7 -23 15 -4 8 -10 12 -15 9 -14 -8 -35 51 -48 131
-15 93 -41 520 -41 665 0 102 9 154 24 140 2 -3 1 -58 -3 -123 -16 -226 14
-444 89 -657 l40 -115 -5 70 c-21 266 -26 385 -20 490 17 336 80 586 216 856
47 95 49 98 86 101 45 5 78 0 113 -16z m444 -1084 c-17 -15 -82 -69 -145 -121
-109 -89 -111 -90 -54 -31 69 72 201 180 218 180 7 0 -2 -13 -19 -28z m139
-107 c21 -20 10 -51 -26 -80 -17 -13 -29 -26 -27 -28 3 -3 75 -12 160 -20 173
-18 229 -33 283 -78 41 -34 46 -59 18 -95 l-19 -24 -20 34 c-24 41 -120 91
-204 106 -43 8 -72 7 -127 -4 -123 -26 -372 -149 -571 -281 -162 -109 -170
-122 -35 -59 154 72 471 197 555 219 83 22 161 16 226 -15 70 -35 69 -56 -2
-150 -71 -93 -93 -142 -94 -201 0 -61 24 -90 104 -128 34 -17 75 -40 91 -53
l29 -22 -25 -7 c-76 -22 -169 3 -449 121 -195 81 -263 101 -371 107 -81 5
-108 2 -169 -16 -59 -18 -75 -20 -81 -9 -14 22 -10 35 26 78 141 169 349 367
564 539 104 82 135 95 164 66z m-502 -205 c-57 -55 -106 -100 -110 -100 -7 1
201 199 209 200 3 0 -42 -45 -99 -100z m-600 -310 l24 -19 -37 -1 c-39 0 -59
17 -37 31 20 12 24 11 50 -11z m1455 -8 c-18 -16 -18 -16 -6 6 6 13 14 21 18
18 3 -4 -2 -14 -12 -24z m-30 -178 c18 -14 18 -14 -6 -3 -31 14 -36 19 -24 19
6 0 19 -7 30 -16z m-821 -9 c70 -16 185 -62 235 -94 l35 -22 -70 7 c-38 4 -81
11 -95 16 -14 6 -72 11 -130 13 -135 3 -181 12 -187 36 -3 11 -14 19 -24 19
-31 0 -22 19 14 29 49 14 155 12 222 -4z"/>
<path d="M16940 5910 c-38 -38 -16 -100 35 -100 26 0 55 33 55 62 0 22 -34 58
-55 58 -8 0 -24 -9 -35 -20z"/>
<path d="M3401 5165 c-226 -50 -406 -226 -478 -470 -16 -55 -18 -136 -21 -985
l-3 -925 23 -45 c13 -25 38 -55 57 -67 l34 -23 561 0 c612 0 623 1 750 59 176
80 326 232 399 407 82 193 73 452 -20 639 -39 77 -106 167 -166 221 l-54 50
43 49 c121 137 176 358 140 564 -47 268 -237 472 -491 526 -96 20 -680 20
-774 0z m723 -342 c50 -14 71 -27 117 -73 68 -67 93 -131 93 -235 0 -140 -58
-241 -171 -297 l-68 -33 -425 0 -425 0 0 195 c0 245 11 287 94 371 84 83 105
87 445 88 234 1 290 -2 340 -16z m51 -1012 c73 -29 189 -141 223 -214 49 -106
53 -229 12 -340 -31 -82 -130 -186 -218 -229 l-67 -33 -442 -3 -443 -3 0 426
0 426 438 -3 c435 -3 437 -3 497 -27z"/>
<path d="M5660 5173 c-38 -15 -74 -50 -91 -87 -18 -39 -19 -82 -19 -822 0
-655 2 -795 15 -869 60 -342 333 -635 673 -721 91 -23 109 -24 432 -24 333 0
337 0 370 23 48 32 72 69 77 120 10 87 -41 163 -124 186 -23 7 -155 11 -323
11 -299 0 -347 5 -444 49 -99 44 -222 164 -273 266 -60 116 -57 78 -63 962 -5
800 -5 812 -26 839 -37 50 -70 68 -131 71 -32 1 -65 0 -73 -4z"/>
<path d="M8840 5175 c-8 -2 -49 -9 -90 -15 -243 -40 -483 -171 -674 -371 -186
-194 -295 -407 -338 -663 -18 -105 -15 -354 5 -457 93 -473 454 -859 924 -986
92 -25 111 -27 323 -27 211 0 231 2 321 26 504 137 876 560 939 1068 47 389
-69 748 -333 1026 -113 119 -212 197 -330 259 -190 101 -324 135 -562 140 -93
2 -177 2 -185 0z m405 -370 c662 -194 894 -1012 429 -1513 -191 -207 -407
-302 -685 -302 -257 0 -468 87 -648 268 -188 188 -274 392 -274 652 0 141 15
224 62 345 92 239 325 460 569 540 162 53 387 57 547 10z"/>
<path d="M12015 5174 c-291 -44 -506 -148 -707 -342 -200 -193 -315 -395 -371
-652 -27 -127 -29 -384 -4 -512 94 -473 459 -863 924 -985 81 -21 129 -26 270
-30 317 -10 515 43 753 202 315 209 521 545 561 914 44 404 -88 771 -380 1054
-177 172 -365 276 -591 329 -83 19 -379 33 -455 22z m418 -368 c264 -78 479
-264 593 -511 56 -120 78 -229 78 -380 -1 -252 -74 -444 -238 -621 -203 -221
-429 -314 -733 -301 -246 10 -427 90 -604 266 -207 207 -304 480 -270 760 49
403 346 722 747 806 110 23 316 14 427 -19z"/>
<path d="M14285 5158 c-26 -15 -48 -39 -62 -68 l-23 -44 0 -1131 0 -1131 23
-44 c31 -62 76 -90 144 -90 70 0 117 22 145 69 l23 36 5 755 c6 739 6 757 28
835 43 157 130 297 241 390 144 119 338 138 514 49 63 -32 179 -149 226 -227
18 -31 44 -84 58 -117 51 -129 53 -155 53 -934 l0 -722 23 -44 c12 -25 38 -55
57 -68 30 -20 45 -23 100 -20 72 4 105 22 137 73 17 28 18 75 23 780 6 847 4
822 85 990 103 211 256 329 445 342 129 9 249 -33 348 -122 96 -86 176 -218
218 -360 16 -55 18 -131 23 -831 l6 -771 28 -36 c37 -49 75 -67 137 -67 70 0
115 23 145 75 l25 42 0 745 c0 795 -2 834 -51 987 -112 353 -396 621 -712 671
-106 17 -272 8 -362 -20 -177 -55 -372 -200 -472 -351 -14 -22 -28 -39 -32
-39 -3 0 -22 24 -41 52 -114 168 -332 314 -529 354 -101 20 -282 15 -374 -10
-89 -24 -194 -77 -270 -134 -37 -29 -70 -52 -73 -52 -2 0 -4 22 -4 49 0 89
-63 152 -157 158 -47 3 -66 -1 -98 -19z"/>
</g>
</svg>
